<?xml version="1.0" encoding="UTF-8" standalone="no"?><!DOCTYPE svg PUBLIC "-//W3C//DTD SVG 1.1//EN" "http://www.w3.org/Graphics/SVG/1.1/DTD/svg11.dtd"><svg width="100%" height="100%" viewBox="0 0 400 459" version="1.1" xmlns="http://www.w3.org/2000/svg" xmlns:xlink="http://www.w3.org/1999/xlink" xml:space="preserve" xmlns:serif="http://www.serif.com/" style="fill-rule:evenodd;clip-rule:evenodd;stroke-linejoin:round;stroke-miterlimit:1.41421;"><path d="M194.978,1.352c3.105,-1.803 6.939,-1.803 10.044,0c63.208,36.704 126.566,73.284 189.956,109.671c3.114,1.788 5.031,5.108 5.022,8.699c-0.182,73.091 -0.182,146.251 0,219.342c0.009,3.591 -1.908,6.911 -5.022,8.699c-63.39,36.387 -126.748,72.967 -189.956,109.671c-3.105,1.803 -6.939,1.803 -10.044,0c-63.208,-36.704 -126.566,-73.284 -189.956,-109.671c-3.114,-1.788 -5.031,-5.108 -5.022,-8.699c0.182,-73.091 0.182,-146.251 0,-219.342c-0.009,-3.591 1.908,-6.911 5.022,-8.699c63.39,-36.387 126.748,-72.967 189.956,-109.671Zm165.034,278.669l-20.002,0l0,-10.009c-8.359,6.284 -18.749,10.009 -30.002,10.009c-27.598,0 -50.004,-22.406 -50.004,-50.004c0,-27.598 22.406,-50.004 50.004,-50.004c11.253,0 21.643,3.725 30.002,10.009l0,-87.547c-45.045,-25.919 -90.059,-51.939 -134.988,-78.027c-3.105,-1.803 -6.939,-1.803 -10.044,0c-56.553,32.838 -113.24,65.566 -169.954,98.123c-3.115,1.788 -5.032,5.108 -5.023,8.699c0.162,65.395 0.162,130.851 0,196.246c-0.009,3.591 1.908,6.911 5.023,8.699c56.714,32.557 113.401,65.285 169.954,98.123c3.105,1.803 6.939,1.803 10.044,0c56.553,-32.838 113.24,-65.566 169.954,-98.123c3.115,-1.788 5.032,-5.108 5.023,-8.699c-0.162,-65.395 -0.162,-130.851 0,-196.246c0.009,-3.591 -1.908,-6.911 -5.023,-8.699c-4.988,-2.863 -9.976,-5.728 -14.964,-8.595l0,166.045Zm-110.012,66.05l-20,11.547l0,-87.649c-8.359,6.283 -18.748,10.008 -30,10.008c-27.596,0 -50,-22.404 -50,-50c0,-27.596 22.404,-50 50,-50c11.252,0 21.641,3.725 30,10.008l0,-10.008l20,0l0,166.094Zm-190.01,-66.05l-20.002,0c0,0 0,-40.547 0,-70.005c0,-16.57 13.433,-30.003 30.002,-30.003c0,0 0,0 0,0c7.684,0 14.694,2.889 20.002,7.64c5.308,-4.751 12.317,-7.64 20.001,-7.64c0,0 0,0 0,0c16.57,0 30.003,13.433 30.003,30.003l0,70.005l-20.002,0l0,-70.005c0,-5.524 -4.477,-10.001 -10.001,-10.001c0,0 0,0 0,0c-5.523,0 -10,4.477 -10,10.001l0,70.005l-20.002,0l0,-70.005c0,-5.524 -4.478,-10.001 -10.001,-10.001c0,0 0,0 0,0c-5.523,0 -10,4.477 -10,10.001l0,70.005Zm250.018,-79.759c16.423,0 29.756,13.333 29.756,29.755c0,16.423 -13.333,29.756 -29.756,29.756c-16.422,0 -29.755,-13.333 -29.755,-29.756c0,-16.422 13.333,-29.755 29.755,-29.755Zm-110.008,59.468c16.421,0 29.753,-13.332 29.753,-29.753c0,-16.421 -13.332,-29.753 -29.753,-29.753c-16.421,0 -29.753,13.332 -29.753,29.753c0,16.421 13.332,29.753 29.753,29.753Z" style="fill:url(#_Linear1);"/><defs><linearGradient id="_Linear1" x1="0" y1="0" x2="1" y2="0" gradientUnits="userSpaceOnUse" gradientTransform="matrix(0.0148218,458.786,-458.786,0.0148218,199.985,8.32729e-17)"><stop offset="0" style="stop-color:#96178e;stop-opacity:1"/><stop offset="0.66" style="stop-color:#2096af;stop-opacity:1"/><stop offset="1" style="stop-color:#391840;stop-opacity:1"/></linearGradient></defs></svg>